<?xml version="1.0" standalone="no"?><!DOCTYPE svg PUBLIC "-//W3C//DTD SVG 1.1//EN" "http://www.w3.org/Graphics/SVG/1.1/DTD/svg11.dtd"><svg t="1638863319782" class="icon" viewBox="0 0 1024 1024" version="1.1" xmlns="http://www.w3.org/2000/svg" p-id="3208" xmlns:xlink="http://www.w3.org/1999/xlink" width="200" height="200"><defs><style type="text/css"></style></defs><path d="M884.032 209.28H139.968a54.72 54.72 0 0 0-54.656 54.528v457.28c0 30.08 24.576 54.528 54.656 54.528h340.864v102.848H340.16a30.208 30.208 0 0 0-30.208 30.08c0 16.64 13.568 30.08 30.208 30.08h342.4c16.64 0 30.144-13.44 30.144-30.08 0-16.576-13.568-30.08-30.144-30.08H541.248v-102.848h342.784c30.08 0 54.656-24.512 54.656-54.528V263.808a54.72 54.72 0 0 0-54.656-54.464z m-5.76 60.288v445.824H145.728V269.568h732.544zM358.4 85.312h309.888a28.48 28.48 0 0 1 0 56.96H358.4a28.48 28.48 0 1 1 0-56.96z" fill="#1890FF" p-id="3209"></path></svg>