<?xml version="1.0" standalone="no"?><!DOCTYPE svg PUBLIC "-//W3C//DTD SVG 1.1//EN" "http://www.w3.org/Graphics/SVG/1.1/DTD/svg11.dtd"><svg t="1638792828896" class="icon" viewBox="0 0 1024 1024" version="1.1" xmlns="http://www.w3.org/2000/svg" p-id="4752" xmlns:xlink="http://www.w3.org/1999/xlink" width="200" height="200"><defs><style type="text/css"></style></defs><path d="M520.8 932c-95.6 0-211.7 0.1-307.3 0-82.9-0.1-116.2-33.8-116.2-116.9V350.9c0.1-73.2 35.3-109.4 108.8-109.5 196.1-0.5 412.6-0.5 608.7 0.1 75.5 0.2 111.9 37.6 111.9 112.5 0.1 155.6 0.1 311.1 0 466.7-0.1 76.1-35.1 111.2-111.9 111.4-98 0.2-196-0.1-294-0.1z m297.8-40.8c49.2-0.1 66.8-18 66.9-67.6V349.8c0-49.7-17.6-67.7-66.8-67.7-197.6-0.1-415.7-0.1-613.3 0-49.2 0-66.8 18.1-66.9 67.6v473.7c0 49.7 17.6 67.6 66.8 67.7 98 0.2 216.5 0.1 314.5 0.1 99.6 0 199.2 0.1 298.8 0zM244.8 127.8c-16.9 0-35.4-0.8-34.8-18.6 0.6-16.1 18.8-17.2 34.3-17.2 110.2-0.2 426.5-0.2 536.7 0 16.7 0 35.1 1.2 34.5 19.1-0.6 16.8-18.4 16.7-34 16.7-55.6 0.1-373.6 0.1-429.1 0.1H244.8v-0.1z" p-id="4753" fill="#2f9aff"></path><path d="M215.2 187.4l-48.4 88.3c-4 7.3-7.9 14.9-13 21.4-7.4 9.6-17.7 14.8-28.8 9-12.3-6.4-15.3-19-9-30.7 58.9-108.7 34.3-63.7 94-171.9 5.9-10.6 16.8-14.8 28.4-8.8 12.8 6.6 14.8 18.6 9.2 30.6-8.9 19.4-19.5 38-29.7 56.8-19.3 35.9 16.9-30.6-2.7 5.3z m589.3-5.3c-10.2-18.8-20.8-37.4-29.7-56.8-5.5-12.1-3.5-24 9.2-30.6 11.5-5.9 22.5-1.8 28.4 8.8 59.7 108.3 35.1 63.2 94 171.9 6.4 11.8 3.4 24.4-9 30.7-11.1 5.7-21.4 0.6-28.8-9-5.1-6.5-9-14.1-13-21.4-25.5-46.5-22.9-41.8-48.4-88.3-19.5-35.9 16.7 30.6-2.7-5.3zM241.9 156.4h17.6V222h-17.6v-65.6z m519 0h17.6V222h-17.6v-65.6z m-519 146.1h17.6v347.1h-17.6V302.5z m519 0h17.6v94.6h-17.6v-94.6z m105.2 604.2l18.2-18.2L768 688.2l-20.8 12.4 118.9 206.1zM235.2 754.1l-20.8-12.4-91.2 146.7 18.2 18.2 93.8-152.5z" p-id="4754" fill="#2f9aff"></path><path d="M760.9 492h17.6v199.8h-17.6V492zM330.2 691.9h448.4v17.6H330.2v-17.6z" p-id="4755" fill="#2f9aff"></path><path d="M260.3 741.7l193.1-173.2 88.9 88.1 219.4-187.3v-44.1L542.4 612.5l-88.9-88.1-193.2 173.2v44.1z" p-id="4756" fill="#2f9aff"></path></svg>