<?xml version="1.0" standalone="no"?><!DOCTYPE svg PUBLIC "-//W3C//DTD SVG 1.1//EN" "http://www.w3.org/Graphics/SVG/1.1/DTD/svg11.dtd"><svg t="1639821111687" class="icon" viewBox="0 0 1024 1024" version="1.1" xmlns="http://www.w3.org/2000/svg" p-id="3071" xmlns:xlink="http://www.w3.org/1999/xlink" width="200" height="200"><defs><style type="text/css"></style></defs><path d="M146 482.3c-63.7 0-115.3 51.6-115.3 115.3 0 63.7 51.6 115.3 115.3 115.3 63.7 0 115.3-51.6 115.3-115.3 0-63.7-51.6-115.3-115.3-115.3zM644.9 307.8c0-48.9-39.7-88.6-88.6-88.6-48.9 0-88.6 39.7-88.6 88.6 0 48.9 39.7 88.6 88.6 88.6 48.9 0 88.6-39.6 88.6-88.6zM873.2 570.7c-50.3 0-91 40.8-91 91 0 50.3 40.8 91 91 91 50.3 0 91-40.8 91-91 0.1-50.3-40.7-91-91-91zM52.7 737.4C23.6 737.4 0 761 0 790.1s23.6 52.7 52.7 52.7 52.7-23.6 52.7-52.7c-0.1-29.1-23.6-52.7-52.7-52.7zM317.1 181.3c-21.6 0-39 17.5-39 39 0 21.6 17.5 39 39 39 21.6 0 39-17.5 39-39 0.1-21.5-17.4-39-39-39zM269 324.2c-19.9 0-36.1 16.1-36.1 36.1 0 19.9 16.1 36.1 36.1 36.1 19.9 0 36.1-16.1 36.1-36.1 0-19.9-16.2-36.1-36.1-36.1zM387.1 481.7c-11.9 0-21.5 9.6-21.5 21.5s9.6 21.5 21.5 21.5 21.5-9.6 21.5-21.5c0-11.8-9.6-21.5-21.5-21.5zM515.4 602.8c-22.3 0-40.4 18.1-40.4 40.4 0 22.3 18.1 40.4 40.4 40.4 22.3 0 40.4-18.1 40.4-40.4 0.1-22.3-18-40.4-40.4-40.4zM656.9 484.6c-13.5 0-24.5 11-24.5 24.5s11 24.5 24.5 24.5 24.5-11 24.5-24.5-11-24.5-24.5-24.5zM845 448.9c18.3 0 33.2-14.9 33.2-33.2 0-18.3-14.9-33.2-33.2-33.2-18.3 0-33.2 14.9-33.2 33.2 0 18.4 14.9 33.2 33.2 33.2zM987.9 404.5c-19.9 0-36.1 16.1-36.1 36.1 0 19.9 16.1 36.1 36.1 36.1 19.9 0 36.1-16.1 36.1-36.1s-16.1-36.1-36.1-36.1z" p-id="3072"></path></svg>