<?xml version="1.0" standalone="no"?><!DOCTYPE svg PUBLIC "-//W3C//DTD SVG 1.1//EN" "http://www.w3.org/Graphics/SVG/1.1/DTD/svg11.dtd"><svg t="1639821151510" class="icon" viewBox="0 0 1024 1024" version="1.1" xmlns="http://www.w3.org/2000/svg" p-id="3218" xmlns:xlink="http://www.w3.org/1999/xlink" width="200" height="200"><defs><style type="text/css"></style></defs><path d="M981.4 938.7H271.1c-102.6 0-185.7-83.1-185.7-185.7V652.2c5-1.7 9.8-4.5 14-8.8L343.8 399c13.9-13.9 36.6-13.9 50.5 0l173.2 173.2 40.3 40.3c13.9 13.9 36.6 13.9 50.5 0l40.3-40.3 320.6-320.6 0.2-0.2c5.9-5.9 6-15.1 0.2-21l-45-44.8c-5.9-5.9-15.3-5.5-21 0.2l-0.2 0.2-295.3 295.5c-13.9 13.9-36.6 13.9-50.5 0L394.3 268.1c-13.9-13.9-36.6-13.9-50.5 0L85.4 526.4V42.7C85.4 19.1 66.3 0 42.7 0 19 0 0 19.1 0 42.7v795.6C0 940.9 83 1024 185.7 1024h795.6c23.6 0 42.7-19.1 42.8-42.6 0-23.6-19.1-42.7-42.7-42.7z" p-id="3219"></path></svg>