<?xml version="1.0" standalone="no"?><!DOCTYPE svg PUBLIC "-//W3C//DTD SVG 1.1//EN" "http://www.w3.org/Graphics/SVG/1.1/DTD/svg11.dtd"><svg t="1639365972003" class="icon" viewBox="0 0 1024 1024" version="1.1" xmlns="http://www.w3.org/2000/svg" p-id="10505" xmlns:xlink="http://www.w3.org/1999/xlink" width="200" height="200"><defs><style type="text/css"></style></defs><path d="M826.3 770c0 24.7-20.1 44.7-44.7 44.7h-559l78.3-368.9c0-24.7 19.9-44.7 44.6-44.7h514.3c24.7 0 44.7 20 44.7 44.7L826.3 770zM312 367.5h503.1v-43.9c0-24.7-20.1-44.7-44.7-44.7H502.2v-40.5c0-24.7-20-44.7-44.7-44.7H233.8c-24.7 0-44.7 20-44.7 44.7V770l78.2-357.7c0-24.7 20.1-44.8 44.7-44.8z m0 0" p-id="10506"></path></svg>