<?xml version="1.0" standalone="no"?><!DOCTYPE svg PUBLIC "-//W3C//DTD SVG 1.1//EN" "http://www.w3.org/Graphics/SVG/1.1/DTD/svg11.dtd"><svg t="1639465363726" class="icon" viewBox="0 0 1024 1024" version="1.1" xmlns="http://www.w3.org/2000/svg" p-id="10745" xmlns:xlink="http://www.w3.org/1999/xlink" width="200" height="200"><defs><style type="text/css"></style></defs><path d="M513.2 508.03m-52.16 0a52.16 52.16 0 1 0 104.32 0 52.16 52.16 0 1 0-104.32 0Z" fill="#637BBB" p-id="10746"></path><path d="M950.92 542.93c0 49.91-9.37 97.77-26.52 142.12 22.67-53.62 35.22-112.56 35.22-174.44 0-236.89-183.69-430.85-416.4-447.28v64.26c6.38 0.53 12.71 1.22 18.99 2.06 219.1 25.43 388.71 200.76 388.71 413.28z" fill="#173D8F" p-id="10747"></path><path d="M895.56 510.61c0 57.1-12.53 111.32-34.96 160.08l53.64 36.67c3.58-7.33 6.97-14.77 10.16-22.31 17.16-44.35 26.52-92.21 26.52-142.12 0-212.52-169.61-387.85-388.71-413.28 187.91 25.03 333.35 186.32 333.35 380.96zM451.79 130.85c9.02-1.41 18.15-2.5 27.37-3.26V63.33C246.45 79.76 62.76 273.72 62.76 510.61c0 69.68 15.93 135.63 44.29 194.45-22.45-49.82-34.86-104.6-34.86-162.1-0.01-209.56 164.93-382.95 379.6-412.11z" fill="#637BBB" p-id="10748"></path><path d="M165.44 678.42c-24.72-50.73-38.61-107.68-38.61-167.81 0-191.74 141.13-351.12 324.97-379.76C237.12 160.01 72.18 333.4 72.18 542.97c0 57.5 12.41 112.27 34.86 162.1 2.05 4.25 4.15 8.48 6.33 12.65l52.07-39.3z" fill="#173D8F" p-id="10749"></path><path d="M197.1 734.78l-49.94 37.7c81.42 112.99 214.13 186.56 364.03 186.56 98.82 0 190.14-32.01 264.25-86.17-64.93 44.55-142.22 70.4-225.18 70.4-148.91 0.01-279.54-83.27-353.16-208.49z" fill="#637BBB" p-id="10750"></path><path d="M881.96 762.89l-53.02-36.24C759.68 828.19 643.1 894.98 511.19 894.98c-128.79 0-242.98-63.68-312.77-161.2l-1.32 1c73.62 125.21 204.25 208.5 353.16 208.5 82.96 0 160.26-25.85 225.18-70.4 41.46-30.3 77.56-67.51 106.52-109.99z" fill="#173D8F" p-id="10751"></path><path d="M733.68 377.59s0-0.01 0 0c0-0.01-0.01-0.02-0.02-0.04-5.85-9.85-12.31-19.3-19.38-28.24l-25.1 20.06-131.73 114.95c38.46-23.19 176.74-105.86 176.23-106.73z" fill="#637BBB" opacity=".34" p-id="10752"></path><path d="M724.25 362.84c-3.18-4.62-6.5-9.14-9.98-13.53l-25.1 20.06-131.72 114.95s154.94-112.62 166.8-121.48z" fill="#637BBB" opacity=".34" p-id="10753"></path><path d="M737.3 512.73c-2.52 121.47-102.04 219.52-224.1 219.52-123.63 0-224.22-100.58-224.22-224.22S389.57 283.81 513.2 283.81c53.65 0 102.92 18.99 141.55 50.54L525.4 479.78l-19.66 22.1 1.3 1.31 17.97-2.26 6.14-0.77s10.33-6.22 26.3-15.85l156.76-135.08c-5.99-7.58-12.35-14.85-19.15-21.7-46.42-46.78-110.76-75.76-181.87-75.76-141.52 0-256.25 114.73-256.25 256.25S371.68 764.28 513.2 764.28c139.95 0 253.61-112.2 256.13-251.55H737.3z" fill="#637BBB" p-id="10754"></path></svg>