<?xml version="1.0" standalone="no"?><!DOCTYPE svg PUBLIC "-//W3C//DTD SVG 1.1//EN" "http://www.w3.org/Graphics/SVG/1.1/DTD/svg11.dtd"><svg t="1640067652807" class="icon" viewBox="0 0 1024 1024" version="1.1" xmlns="http://www.w3.org/2000/svg" p-id="1013" xmlns:xlink="http://www.w3.org/1999/xlink" width="200" height="200"><defs><style type="text/css"></style></defs><path d="M737.92 128L896 410.24V896H128V128h609.92m16.64-64H96a32 32 0 0 0-32 32v832a32 32 0 0 0 32 32h832a32 32 0 0 0 32-32V399.36a32 32 0 0 0-6.4-15.36l-173.44-306.56a32 32 0 0 0-25.6-13.44z" p-id="1014"></path><path d="M696.32 128a8.32 8.32 0 0 1 8.32 8.32V320H256V128h440.32m0-64H224a32 32 0 0 0-32 32v256a32 32 0 0 0 32 32h512a32 32 0 0 0 32-32V136.32A72.32 72.32 0 0 0 696.32 64zM480 512A96 96 0 1 1 384 608 96 96 0 0 1 480 512m0-64A160 160 0 1 0 640 608 160 160 0 0 0 480 448z" p-id="1015"></path></svg>