<?xml version="1.0" standalone="no"?><!DOCTYPE svg PUBLIC "-//W3C//DTD SVG 1.1//EN" "http://www.w3.org/Graphics/SVG/1.1/DTD/svg11.dtd"><svg t="1638795750729" class="icon" viewBox="0 0 1024 1024" version="1.1" xmlns="http://www.w3.org/2000/svg" p-id="2316" xmlns:xlink="http://www.w3.org/1999/xlink" width="200" height="200"><defs><style type="text/css"></style></defs><path d="M106.24 535.893L271.787 651.52c20.053 14.08 45.653 0 45.653-22.613V395.093c0-5.973-2.133-11.946-5.547-17.066-9.386-12.374-27.306-14.934-40.106-5.547L106.24 488.107c-14.08 11.093-14.08 33.706 0 47.786z m23.04-322.56h785.067c18.773 0 34.133-15.36 34.133-34.133s-15.36-34.133-34.133-34.133H129.28c-18.773 0-34.133 15.36-34.133 34.133s15.36 34.133 34.133 34.133z m0 665.6h785.067c18.773 0 34.133-15.36 34.133-34.133s-15.36-34.133-34.133-34.133H129.28c-18.773 0-34.133 15.36-34.133 34.133s15.36 34.133 34.133 34.133zM419.413 435.2h494.934c18.773 0 34.133-15.36 34.133-34.133s-15.36-34.134-34.133-34.134H419.413c-18.773 0-34.133 15.36-34.133 34.134s15.36 34.133 34.133 34.133z m0 221.867h495.36c18.774 0 34.134-15.36 34.134-34.134s-15.36-34.133-34.134-34.133h-495.36c-18.773 0-34.133 15.36-34.133 34.133v0.427c0 18.347 15.36 33.707 34.133 33.707z" p-id="2317"></path></svg>