<?xml version="1.0" standalone="no"?><!DOCTYPE svg PUBLIC "-//W3C//DTD SVG 1.1//EN" "http://www.w3.org/Graphics/SVG/1.1/DTD/svg11.dtd"><svg t="1641367345820" class="icon" viewBox="0 0 1024 1024" version="1.1" xmlns="http://www.w3.org/2000/svg" p-id="4977" xmlns:xlink="http://www.w3.org/1999/xlink" width="200" height="200"><defs><style type="text/css"></style></defs><path d="M896 928H128a32 32 0 0 1-32-32V128a32 32 0 0 1 32-32h768a32 32 0 0 1 32 32v768a32 32 0 0 1-32 32zM160 864h704V160H160z" fill="#4A8BFE" p-id="4978"></path><path d="M768 288H256a32 32 0 0 1 0-64h512a32 32 0 0 1 0 64z" fill="#4A8BFE" p-id="4979"></path><path d="M512 800a32 32 0 0 1-32-32V256a32 32 0 0 1 64 0v512a32 32 0 0 1-32 32z" fill="#4A8BFE" p-id="4980"></path></svg>